<?xml version="1.0" encoding="UTF-8" standalone="no"?>
<svg
   viewBox="0 80 1273.8041 480"
   version="1.2"
   xmlns="http://www.w3.org/2000/svg"
   xmlns:svg="http://www.w3.org/2000/svg"
   xmlns:rdf="http://www.w3.org/1999/02/22-rdf-syntax-ns#">
  <defs>
    <marker id="exit" style="overflow:visible" orient="auto-start-reverse" markerWidth="1" markerHeight="1" viewBox="0 0 1 1" preserveAspectRatio="xMidYMid">
      <path transform="scale(1.1)" d="M -2,-4 9,0 -2,4 c 2,-2.33 2,-5.66 0,-8 z" style="fill:black;fill-rule:evenodd;stroke:none"/>
    </marker>
  </defs>
  <style>
      text { font-family: sans-serif; font-size: 13.4px; fill: black; fill-opacity: 1; baseline-shift: -4% }
      path { fill:#FFF0D0; stroke: black; stroke-width: 1; stroke-linecap: square; stroke-linejoin: bevel; stroke-opacity: 1 }
  </style>
  <title>Zoo, state diagram</title>
  <path d="M 841.81448,442.14624 V 545.03375"/>
  <path d="m 841.81448,441.90626 v 53.50725" style="marker-end:url(#exit)" />
  <path d="M 1017.0846,437.99523 V 544.7877"/>
  <path d="M 367.17645,218.3066 V 436.95786"/>
  <path d="M 626.26949,106.45561 V 432.72498"/>
  <path d="M 1188.2221,106.30679 V 324.958"/>
  <path d="M 112.98759,106.14671 V 209.03417"/>
  <path d="M 951.38736,330.14638 V 433.03389"/>
  <path d="M 1072.9731,330.14638 V 433.03389"/>
  <path d="m 375.30704,437.6136 c 695.11416,0 695.11416,0 695.11416,0"/>
  <path d="m 373.76987,325.61372 c 785.28323,0 785.28323,0 785.28323,0"/>
  <path d="m 112.98759,97.47371 c 1040.80561,0 1040.80561,0 1040.80561,0"/>
  <path d="m 112.80123,212.23914 c 399.31208,0 399.31208,0 399.31208,0"/>
  <path d="m 327.46106,97.47371 c 0,-6.870126 2.47254,-12.439463 5.52258,-12.439463 h 99.40641 c 3.05002,0 5.52258,5.569337 5.52258,12.439463 0,6.87017 -2.47256,12.43946 -5.52258,12.43946 h -99.40641 c -3.05004,0 -5.52258,-5.56929 -5.52258,-12.43946"/>
  <text x="340.68909" y="101.92567">Snow Leopard</text>
  <path d="m 587.22559,97.47371 c 0,-6.870126 2.59282,-12.439463 5.79122,-12.439463 h 84.93782 c 3.19841,0 5.79122,5.569337 5.79122,12.439463 0,6.87017 -2.59281,12.43946 -5.79122,12.43946 h -84.93782 c -3.1984,0 -5.79122,-5.56929 -5.79122,-12.43946"/>
  <text x="600.81171" y="101.92567">African Lion</text>
  <path d="m 747.73189,97.47371 c 0,-6.870126 2.67303,-12.439463 5.97036,-12.439463 h 87.56535 c 3.29734,0 5.97037,5.569337 5.97037,12.439463 0,6.87017 -2.67303,12.43946 -5.97037,12.43946 h -87.56535 c -3.29733,0 -5.97036,-5.56929 -5.97036,-12.43946"/>
  <text x="759.29773" y="101.92567">Bengal Tiger</text>
  <path d="m 911.20727,97.47371 c 0,-6.870126 2.33446,-12.439463 5.21418,-12.439463 h 119.92615 c 2.8795,0 5.2142,5.569337 5.2142,12.439463 0,6.87017 -2.3347,12.43946 -5.2142,12.43946 H 916.42145 c -2.87972,0 -5.21418,-5.56929 -5.21418,-12.43946"/>
  <text x="921.98132" y="101.92567">Dromedary Camel</text>
  <path d="m 1129.5134,97.47371 c 0,-6.870126 2.5928,-12.439463 5.7912,-12.439463 h 84.9378 c 3.1985,0 5.7913,5.569337 5.7913,12.439463 0,6.87017 -2.5928,12.43946 -5.7913,12.43946 h -84.9378 c -3.1984,0 -5.7912,-5.56929 -5.7912,-12.43946"/>
  <text x="1141.6125" y="101.92567">White Rhino</text>
  <path d="m 47.798493,210.86973 c 0,-6.87012 2.39246,-12.43946 5.343716,-12.43946 H 220.57866 c 2.95129,0 5.34372,5.56934 5.34372,12.43946 0,6.87017 -2.39243,12.43946 -5.34372,12.43946 H 53.142209 c -2.951256,0 -5.343716,-5.56929 -5.343716,-12.43946"/>
  <text x="58.343132" y="215.3217">North American Porcupine</text>
  <path d="m 244.86607,209.377 c 0,-6.04571 2.96693,-10.94673 6.62683,-10.94673 h 60.37781 c 3.65989,0 6.62684,4.90102 6.62684,10.94673 v 2.98547 c 0,6.04568 -2.96695,10.94672 -6.62684,10.94672 H 251.4929 c -3.6599,0 -6.62683,-4.90104 -6.62683,-10.94672 V 209.377"/>
  <text x="257.83884" y="215.3217">Mandrill</text>
  <path d="m 337.51493,206.51592 c 0,-4.46558 3.18718,-8.08565 7.11876,-8.08565 h 45.08551 c 3.93153,0 7.11877,3.62007 7.11877,8.08565 v 8.70762 c 0,4.46557 -3.18724,8.08565 -7.11877,8.08565 h -45.08551 c -3.93158,0 -7.11876,-3.62008 -7.11876,-8.08565 v -8.70762"/>
  <text x="352.0625" y="215.3217">Sloth</text>
  <path d="m 415.88011,206.51592 c 0,-4.46558 3.20744,-8.08565 7.16402,-8.08565 h 45.37213 c 3.95651,0 7.16402,3.62007 7.16402,8.08565 v 8.70762 c 0,4.46557 -3.20751,8.08565 -7.16402,8.08565 h -45.37213 c -3.95658,0 -7.16402,-3.62008 -7.16402,-8.08565 v -8.70762"/>
  <text x="430.47339" y="215.3217">Coati</text>
  <path d="m 494.62433,206.51592 c 0,-4.46558 3.20744,-8.08565 7.16402,-8.08565 h 45.37213 c 3.95651,0 7.16402,3.62007 7.16402,8.08565 v 8.70762 c 0,4.46557 -3.20751,8.08565 -7.16402,8.08565 h -45.37213 c -3.95658,0 -7.16402,-3.62008 -7.16402,-8.08565 v -8.70762"/>
  <text x="511.05728" y="215.3217">Emu</text>
  <path d="m 850.89033,210.86973 c 0,-6.87012 2.74774,-12.43946 6.13727,-12.43946 h 90.01326 c 3.38956,0 6.13727,5.56934 6.13727,12.43946 0,6.87017 -2.74771,12.43946 -6.13727,12.43946 H 857.0276 c -3.38953,0 -6.13727,-5.56929 -6.13727,-12.43946"/>
  <text x="864.87329" y="215.3217">Chimpanzee</text>
  <path d="m 333.56328,320.88134 c 0,-5.0152 3.04033,-9.08081 6.79077,-9.08081 h 51.09247 c 3.75039,0 6.79077,4.06561 6.79077,9.08081 v 6.71731 c 0,5.01519 -3.04038,9.0808 -6.79077,9.0808 h -51.09247 c -3.75044,0 -6.79077,-4.06561 -6.79077,-9.0808 v -6.71731"/>
  <text x="347.29648" y="328.69196">Serval</text>
  <path d="m 458.40329,319.88618 c 0,-4.46558 3.20744,-8.08565 7.16402,-8.08565 h 45.37213 c 3.95651,0 7.16402,3.62007 7.16402,8.08565 v 8.70762 c 0,4.46557 -3.20751,8.08565 -7.16402,8.08565 h -45.37213 c -3.95658,0 -7.16402,-3.62008 -7.16402,-8.08565 v -8.70762"/>
  <text x="478.3407" y="328.69196">Yak</text>
  <path d="m 845.81611,324.23999 c 0,-6.87012 2.96697,-12.43946 6.62691,-12.43946 h 134.01094 c 3.6602,0 6.62692,5.56934 6.62692,12.43946 0,6.87017 -2.96672,12.43946 -6.62692,12.43946 H 852.44302 c -3.65994,0 -6.62691,-5.56929 -6.62691,-12.43946"/>
  <text x="866.4389" y="328.69196">Capuchin Monkey</text>
  <path d="m 1025.21,324.23999 c 0,-6.87012 2.5661,-12.43946 5.7315,-12.43946 h 84.0632 c 3.1655,0 5.7315,5.56934 5.7315,12.43946 0,6.87017 -2.566,12.43946 -5.7315,12.43946 h -84.0632 c -3.1654,0 -5.7315,-5.56929 -5.7315,-12.43946"/>
  <text x="1038.9551" y="328.69196">Kookaburra</text>
  <path d="m 1150.4104,323.12044 c 0,-6.25181 2.8779,-11.31991 6.428,-11.31991 h 62.7673 c 3.5501,0 6.428,5.0681 6.428,11.31991 v 2.2391 c 0,6.25178 -2.8779,11.31991 -6.428,11.31991 h -62.7673 c -3.5501,0 -6.428,-5.06813 -6.428,-11.31991 v -2.2391"/>
  <text x="1165.3792" y="328.69196">Tortoise</text>
  <path d="m 331.57328,436.49403 c 0,-6.25181 2.8779,-11.31991 6.42798,-11.31991 h 62.76733 c 3.55004,0 6.42798,5.0681 6.42798,11.31991 v 2.2391 c 0,6.25178 -2.87794,11.31991 -6.42798,11.31991 h -62.76733 c -3.55008,0 -6.42798,-5.06813 -6.42798,-11.31991 v -2.2391"/>
  <text x="344.47198" y="442.06555">Cheetah</text>
  <path d="m 571.06906,435.87206 c 0,-5.90831 2.92689,-10.69794 6.53737,-10.69794 h 59.56272 c 3.61049,0 6.53737,4.78963 6.53737,10.69794 v 3.48305 c 0,5.90834 -2.92688,10.69793 -6.53737,10.69793 h -59.56272 c -3.61048,0 -6.53737,-4.78959 -6.53737,-10.69793 v -3.48305"/>
  <text x="585.53027" y="442.06555">Watusu</text>
  <path d="m 686.44518,436.61843 c 0,-6.32052 2.7719,-11.44431 6.19121,-11.44431 h 60.45536 c 3.41936,0 6.19121,5.12379 6.19121,11.44431 v 1.99031 c 0,6.32054 -2.77185,11.4443 -6.19121,11.4443 h -60.45536 c -3.41931,0 -6.19121,-5.12376 -6.19121,-11.4443 v -1.99031"/>
  <text x="697.85785" y="442.06555">Alligator</text>
  <path d="m 802.01292,437.2404 c 0,-6.66402 2.85116,-12.06628 6.36825,-12.06628 h 66.86662 c 3.51702,0 6.36825,5.40226 6.36825,12.06628 v 0.74637 c 0,6.66407 -2.85123,12.06627 -6.36825,12.06627 h -66.86662 c -3.51709,0 -6.36825,-5.4022 -6.36825,-12.06627 v -0.74637"/>
  <text x="814.09973" y="442.06555">Flamingo</text>
  <path d="m 1036.1573,436.12085 c 0,-6.04571 2.967,-10.94673 6.6269,-10.94673 h 60.3778 c 3.6599,0 6.6268,4.90102 6.6268,10.94673 v 2.98547 c 0,6.04568 -2.9669,10.94672 -6.6268,10.94672 h -60.3778 c -3.6599,0 -6.6269,-4.90104 -6.6269,-10.94672 v -2.98547"/>
  <text x="1049.4713" y="442.06555">Wallaby</text>
  <path d="m 924.38039,434.13053 c 0,-4.94648 3.13616,-8.95641 7.0048,-8.95641 h 49.6704 c 3.86863,0 7.0048,4.00993 7.0048,8.95641 v 6.9661 c 0,4.94653 -3.13617,8.95641 -7.0048,8.95641 h -49.6704 c -3.86864,0 -7.0048,-4.00988 -7.0048,-8.95641 v -6.9661"/>
  <text x="938.05682" y="442.06555">Llama</text>
  <path d="m 987.2345,539.05481 c 0,-4.46558 3.20744,-8.08565 7.16402,-8.08565 h 45.37218 c 3.9565,0 7.164,3.62007 7.164,8.08565 v 8.70762 c 0,4.46557 -3.2075,8.08565 -7.164,8.08565 h -45.37218 c -3.95658,0 -7.16402,-3.62008 -7.16402,-8.08565 v -8.70762"/>
  <text x="1000.7897" y="547.94525">Entry</text>
  <path d="m 811.96439,539.05481 c 0,-4.46558 3.20744,-8.08565 7.16402,-8.08565 h 45.37215 c 3.95652,0 7.16402,3.62007 7.16402,8.08565 v 8.70762 c 0,4.46557 -3.2075,8.08565 -7.16402,8.08565 h -45.37215 c -3.95658,0 -7.16402,-3.62008 -7.16402,-8.08565 v -8.70762"/>
  <text x="830.06488" y="547.94525">Exit</text>
  <path d="m 47.810323,97.473709 c 0,-6.870126 2.334463,-12.439462 5.214181,-12.439462 H 172.95067 c 2.87944,0 5.21418,5.569336 5.21418,12.439462 0,6.870171 -2.33474,12.439461 -5.21418,12.439461 H 53.024504 c -2.879718,0 -5.214181,-5.56929 -5.214181,-12.439461"/>
  <text x="59.672215" y="101.92567">African Porcupine</text>
  <path d="m 578.26945,324.23999 c 0,-6.87012 2.58397,-12.43946 5.77146,-12.43946 h 103.88628 c 3.18751,0 5.77145,5.56934 5.77145,12.43946 0,6.87017 -2.58394,12.43946 -5.77145,12.43946 H 584.04091 c -3.18749,0 -5.77146,-5.56929 -5.77146,-12.43946"/>
  <text x="590.14661" y="328.69196">Bactrian Camel</text>
</svg>
